<?xml version="1.0" encoding="iso-8859-1"?>
<!-- Generator: Adobe Illustrator 19.0.0, SVG Export Plug-In . SVG Version: 6.00 Build 0)  -->
<svg version="1.1" id="Capa_1" xmlns="http://www.w3.org/2000/svg" xmlns:xlink="http://www.w3.org/1999/xlink" x="0px" y="0px"
	 viewBox="0 0 512 512" style="enable-background:new 0 0 512 512;" xml:space="preserve">
<g>
	<g transform="translate(1 1)">
		<rect x="41.667" y="24.6" style="fill:#00838F;" width="426.667" height="256"/>
		<rect x="41.667" y="24.6" style="fill:#00BCD4;" width="401.067" height="256"/>
		<circle style="fill:#CFD8DC;" cx="255" cy="365.933" r="34.133"/>
		<path style="fill:#E91E63;" d="M203.8,493.933v-45.105c1.333-27.307,23.861-48.762,51.2-48.762s49.867,21.456,51.2,48.762v45.105
			H203.8z"/>
		<circle style="fill:#CFD8DC;" cx="417.133" cy="365.933" r="34.133"/>
		<path style="fill:#FF9801;" d="M365.933,493.933v-45.105c1.333-27.307,23.861-48.762,51.2-48.762s49.867,21.456,51.2,48.762
			v45.105H365.933z"/>
		<circle style="fill:#CFD8DC;" cx="92.867" cy="365.933" r="34.133"/>
		<path style="fill:#009688;" d="M41.667,493.933v-45.105c0.689-27.597,23.603-49.419,51.2-48.762
			c27.597-0.657,50.51,21.165,51.2,48.762v45.105H41.667z"/>
		<g>
			<path style="fill:#607D8B;" d="M24.6,7.533h460.8c9.426,0,17.067,7.641,17.067,17.067l0,0c0,9.426-7.641,17.067-17.067,17.067
				H24.6c-9.426,0-17.067-7.641-17.067-17.067l0,0C7.533,15.174,15.174,7.533,24.6,7.533z"/>
			<path style="fill:#607D8B;" d="M24.6,263.533h460.8c9.426,0,17.067,7.641,17.067,17.067l0,0c0,9.426-7.641,17.067-17.067,17.067
				H24.6c-9.426,0-17.067-7.641-17.067-17.067l0,0C7.533,271.174,15.174,263.533,24.6,263.533z"/>
		</g>
		<g>
			<path style="fill:#CFD8DC;" d="M24.156,7.533h436.087c9.181,0,16.623,7.442,16.623,16.623v0.887
				c0,9.181-7.442,16.623-16.623,16.623H24.156c-9.181,0-16.623-7.442-16.623-16.623v-0.887C7.533,14.976,14.976,7.533,24.156,7.533
				z"/>
			<path style="fill:#CFD8DC;" d="M24.156,263.533h436.087c9.181,0,16.623,7.442,16.623,16.623v0.887
				c0,9.181-7.442,16.623-16.623,16.623H24.156c-9.181,0-16.623-7.442-16.623-16.623v-0.887
				C7.533,270.976,14.976,263.533,24.156,263.533z"/>
		</g>
		<path style="fill:#F57C00;" d="M323.267,149.613v56.576l-42.411,18.005c-5.044,2.151-10.353,3.615-15.787,4.352l32.597-13.824
			v-54.272L323.267,149.613z"/>
		<path style="fill:#FF9801;" d="M297.667,160.451v54.272l-32.597,13.824c-12.147,1.893-24.581,0.387-35.925-4.352l-42.411-18.005
			v-56.576l55.467,23.552l10.837,4.608c1.24,0.597,2.685,0.597,3.925,0L297.667,160.451z"/>
		<path style="fill:#F57C00;" d="M362.264,133.059l-25.685,10.923l-13.312,5.632l-66.304,28.16c-1.24,0.597-2.685,0.597-3.925,0
			l-66.304-28.16l-38.997-16.555c-1.989-1.073-3.328-3.052-3.583-5.298c-0.255-2.246,0.605-4.474,2.303-5.966
			c0.378-0.352,0.81-0.64,1.28-0.853l105.301-44.715c1.24-0.598,2.685-0.598,3.925,0l105.301,44.715
			c2.244,1.188,3.648,3.519,3.648,6.059S364.508,131.871,362.264,133.059z"/>
		<path style="fill:#FF9801;" d="M336.579,143.981l-13.312,5.632l-66.304,28.16c-1.24,0.597-2.685,0.597-3.925,0l-66.304-28.16
			l-38.997-16.555c-1.989-1.073-3.328-3.052-3.583-5.298c-0.255-2.246,0.605-4.474,2.303-5.966l79.616-33.792
			c1.24-0.597,2.685-0.597,3.925,0l105.301,44.715c1.989,1.073,3.327,3.052,3.582,5.298
			C339.136,140.261,338.276,142.489,336.579,143.981z"/>
		<path style="fill:#607D8B;" d="M16.067,468.333h477.867c4.713,0,8.533,3.821,8.533,8.533v17.067c0,4.713-3.821,8.533-8.533,8.533
			H16.067c-4.713,0-8.533-3.821-8.533-8.533v-17.067C7.533,472.154,11.354,468.333,16.067,468.333z"/>
		<path style="fill:#CFD8DC;" d="M15.845,468.333h452.71c4.59,0,8.311,3.721,8.311,8.311v17.51c0,4.59-3.721,8.311-8.311,8.311
			H15.845c-4.59,0-8.311-3.721-8.311-8.311v-17.51C7.533,472.055,11.255,468.333,15.845,468.333z"/>
	</g>
	<g>
		<path d="M486.4,51.2c14.138,0,25.6-11.462,25.6-25.6S500.539,0,486.4,0H25.6C11.462,0,0,11.462,0,25.6s11.462,25.6,25.6,25.6
			h8.533V256H25.6C11.462,256,0,267.462,0,281.6s11.462,25.6,25.6,25.6h460.8c14.138,0,25.6-11.462,25.6-25.6S500.539,256,486.4,256
			h-8.533V51.2H486.4z M17.067,25.6c0.006-4.71,3.823-8.527,8.533-8.533h460.8c4.713,0,8.533,3.821,8.533,8.533
			s-3.82,8.533-8.533,8.533H25.6C20.89,34.127,17.073,30.31,17.067,25.6z M494.933,281.6c-0.006,4.71-3.823,8.527-8.533,8.533H25.6
			c-4.713,0-8.533-3.821-8.533-8.533s3.821-8.533,8.533-8.533h460.8C491.11,273.073,494.927,276.89,494.933,281.6z M460.8,256H51.2
			V51.2h409.6V256z"/>
		<path d="M145.067,195.696c4.713,0,8.533-3.821,8.533-8.533v-41.776l25.6,10.878v50.922l0.019,0.093
			c0.01,1.084,0.226,2.156,0.638,3.158c0.587,0.92,1.189,1.829,1.807,2.729c0.787,0.805,1.727,1.446,2.763,1.886l42.432,18.017
			c18.652,7.852,39.683,7.844,58.329-0.021l42.386-17.997c1.036-0.44,1.975-1.081,2.763-1.886c0.618-0.899,1.22-1.809,1.807-2.729
			c0.412-1.003,0.628-2.075,0.638-3.158l0.018-0.093v-50.922l33.796-14.362c5.41-2.514,8.871-7.938,8.871-13.904
			c0-5.966-3.461-11.39-8.871-13.904l-105.3-44.745c-3.383-1.45-7.213-1.45-10.596,0l-105.296,44.745
			c-5.48,2.434-8.973,7.909-8.871,13.904v59.163C136.534,191.875,140.354,195.696,145.067,195.696z M315.733,201.541l-37.167,15.78
			c-14.414,6.073-30.668,6.081-45.088,0.021l-37.212-15.801v-38.023l54.437,23.132c3.383,1.45,7.213,1.45,10.596,0l54.433-23.132
			V201.541z M256,85.641L355.675,128l-34.69,14.742l-0.075,0.032L256,170.358l-64.91-27.584l-0.075-0.032L156.325,128L256,85.641z"
			/>
		<path d="M494.933,460.8h-17.067v-10.971c-0.219-21.605-12.617-41.235-32.031-50.716c13.592-11.603,18.513-30.447,12.329-47.214
			c-6.183-16.767-22.161-27.904-40.032-27.904s-33.849,11.137-40.032,27.904c-6.183,16.767-1.263,35.611,12.329,47.214
			c-19.414,9.482-31.812,29.111-32.031,50.716V460.8h-42.667v-10.971c-0.219-21.605-12.616-41.235-32.031-50.716
			c13.592-11.603,18.513-30.447,12.329-47.214c-6.183-16.767-22.161-27.904-40.032-27.904c-17.871,0-33.849,11.137-40.032,27.904
			c-6.183,16.767-1.263,35.611,12.329,47.214c-19.414,9.482-31.812,29.111-32.031,50.716V460.8H153.6v-10.971
			c-0.219-21.605-12.617-41.235-32.031-50.716c13.592-11.603,18.513-30.447,12.329-47.214
			c-6.183-16.767-22.161-27.904-40.032-27.904s-33.849,11.137-40.032,27.904c-6.183,16.767-1.263,35.611,12.329,47.214
			c-19.414,9.482-31.812,29.111-32.031,50.716V460.8H17.067C7.645,460.809,0.009,468.445,0,477.867v17.067
			c0.009,9.422,7.645,17.057,17.067,17.067h477.867c9.422-0.009,17.057-7.645,17.067-17.067v-17.067
			C511.991,468.445,504.355,460.809,494.933,460.8z M392.533,366.933c0-14.138,11.462-25.6,25.6-25.6
			c14.138,0,25.6,11.462,25.6,25.6s-11.462,25.6-25.6,25.6C404.001,392.518,392.549,381.065,392.533,366.933z M375.467,449.829
			c1.329-22.591,20.037-40.23,42.667-40.23c22.63,0,41.337,17.639,42.667,40.23V460.8h-85.333V449.829z M230.4,366.933
			c0-14.138,11.462-25.6,25.6-25.6c14.139,0,25.6,11.462,25.6,25.6s-11.461,25.6-25.6,25.6
			C241.868,392.518,230.415,381.065,230.4,366.933z M213.333,449.829c1.329-22.591,20.037-40.23,42.667-40.23
			c22.63,0,41.337,17.639,42.667,40.23V460.8h-85.333V449.829z M68.267,366.933c0-14.138,11.462-25.6,25.6-25.6
			s25.6,11.462,25.6,25.6s-11.462,25.6-25.6,25.6C79.735,392.518,68.282,381.065,68.267,366.933z M51.2,449.829
			c0.718-22.871,19.793-40.856,42.667-40.229c22.873-0.627,41.949,17.358,42.667,40.229V460.8H51.2V449.829z M17.067,494.933
			v-17.067h477.867l0.012,17.067H17.067z"/>
	</g>
</g>
<g>
</g>
<g>
</g>
<g>
</g>
<g>
</g>
<g>
</g>
<g>
</g>
<g>
</g>
<g>
</g>
<g>
</g>
<g>
</g>
<g>
</g>
<g>
</g>
<g>
</g>
<g>
</g>
<g>
</g>
</svg>
